# xmcd
#
# Track frame offsets: 
#        150
#        25155
#        39098
#        69099
#        110772
#        126906
#        151884
#        181382
#        201538
#        248029
#        268873
#        289339
#
# Disc length: 4084 seconds
#
# Revision: 0
# Processed by: cddbd v1.5.2PL0 Copyright (c) Steve Scherf et al.
# Submitted via: ExactAudioCopy v0.99pb1
#
DISCID=ac0ff20c
DTITLE=Tedi Papavrami - Violin Transcriptions (feat. Domenico Scarlatt
DTITLE=i)
DYEAR=2007
DGENRE=Classical
TTITLE0=Sonate fur Cembalo a-moll K 54
TTITLE1=Sonate fur Cembalo C-Dur K 32
TTITLE2=Sonate fur Cembalo f-moll K 466
TTITLE3=Sonate fur Cembalo f-moll K 481
TTITLE4=Sonate fur Cembalo C-Dur K 11
TTITLE5=Sonate fur Cembalo A-Dur K 380
TTITLE6=Sonate fur Cembalo h-moll K 87
TTITLE7=Sonate fur Cembalo d-moll K 141
TTITLE8=Sonate fur Cembalo g-moll K 426
TTITLE9=Sonate fur Cembalo g-moll K 185
TTITLE10=Sonate fur Cembalo d-moll K 9
TTITLE11=Sonate fur Cembalo A-Dur K 322
EXTD=
EXTT0=
EXTT1=
EXTT2=
EXTT3=
EXTT4=
EXTT5=
EXTT6=
EXTT7=
EXTT8=
EXTT9=
EXTT10=
EXTT11=
PLAYORDER=
